<svg width="61" height="61" viewBox="0 0 61 61" fill="none" xmlns="http://www.w3.org/2000/svg">
<path d="M5.08333 22.875V17.7917C5.08333 10.1667 10.1667 5.08337 17.7917 5.08337H43.2083C50.8333 5.08337 55.9167 10.1667 55.9167 17.7917V22.875" stroke="#B5B7BF" stroke-width="3.8125" stroke-miterlimit="10" stroke-linecap="round" stroke-linejoin="round"/>
<path d="M5.08333 38.125V43.2083C5.08333 50.8333 10.1667 55.9167 17.7917 55.9167H43.2083C50.8333 55.9167 55.9167 50.8333 55.9167 43.2083V38.125" stroke="#B5B7BF" stroke-width="3.8125" stroke-miterlimit="10" stroke-linecap="round" stroke-linejoin="round"/>
<path d="M17.0292 23.5358L30.5 31.3387L43.8691 23.5866" stroke="#B5B7BF" stroke-width="3.8125" stroke-linecap="round" stroke-linejoin="round"/>
<path d="M30.5 45.1657V31.3136" stroke="#B5B7BF" stroke-width="3.8125" stroke-linecap="round" stroke-linejoin="round"/>
<path d="M27.3483 15.9872L19.215 20.5115C17.385 21.5281 15.86 24.0952 15.86 26.2048V34.821C15.86 36.9306 17.3596 39.4977 19.215 40.5144L27.3483 45.0384C29.0767 46.0043 31.9233 46.0043 33.6771 45.0384L41.8104 40.5144C43.6404 39.4977 45.1654 36.9306 45.1654 34.821V26.2048C45.1654 24.0952 43.6658 21.5281 41.8104 20.5115L33.6771 15.9872C31.9233 14.996 29.0767 14.996 27.3483 15.9872Z" stroke="#B5B7BF" stroke-width="3.8125" stroke-linecap="round" stroke-linejoin="round"/>
</svg>
