<svg width="61" height="61" viewBox="0 0 61 61" fill="none" xmlns="http://www.w3.org/2000/svg">
<path d="M55.9167 38.125C55.9167 47.9612 47.9612 55.9167 38.125 55.9167L40.7938 51.4687" stroke="#B5B7BF" stroke-width="3.8125" stroke-linecap="round" stroke-linejoin="round"/>
<path d="M5.08331 22.875C5.08331 13.0388 13.0387 5.08337 22.875 5.08337L20.2062 9.53129" stroke="#B5B7BF" stroke-width="3.8125" stroke-linecap="round" stroke-linejoin="round"/>
<path d="M34.8209 11.3103L44.9367 17.1561L54.9509 11.3357" stroke="#B5B7BF" stroke-width="3.8125" stroke-linecap="round" stroke-linejoin="round"/>
<path d="M44.9367 27.5008V17.1307" stroke="#B5B7BF" stroke-width="3.8125" stroke-linecap="round" stroke-linejoin="round"/>
<path d="M42.5475 5.61712L36.4475 8.99743C35.075 9.75993 33.9313 11.6916 33.9313 13.2674V19.7233C33.9313 21.2992 35.0496 23.2308 36.4475 23.9933L42.5475 27.3738C43.8438 28.1109 45.9788 28.1109 47.3004 27.3738L53.4004 23.9933C54.7729 23.2308 55.9167 21.2992 55.9167 19.7233V13.2674C55.9167 11.6916 54.7983 9.75993 53.4004 8.99743L47.3004 5.61712C46.0042 4.90546 43.8692 4.90546 42.5475 5.61712Z" stroke="#B5B7BF" stroke-width="3.8125" stroke-linecap="round" stroke-linejoin="round"/>
<path d="M5.97296 39.2686L16.0634 45.1144L26.103 39.294" stroke="#B5B7BF" stroke-width="3.8125" stroke-linecap="round" stroke-linejoin="round"/>
<path d="M16.0634 55.4592V45.0891" stroke="#B5B7BF" stroke-width="3.8125" stroke-linecap="round" stroke-linejoin="round"/>
<path d="M13.6996 33.5754L7.59958 36.9557C6.22708 37.7182 5.08331 39.6498 5.08331 41.2257V47.6816C5.08331 49.2574 6.20166 51.1891 7.59958 51.9516L13.6996 55.332C14.9958 56.0691 17.1308 56.0691 18.4525 55.332L24.5525 51.9516C25.925 51.1891 27.0687 49.2574 27.0687 47.6816V41.2257C27.0687 39.6498 25.9504 37.7182 24.5525 36.9557L18.4525 33.5754C17.1308 32.8637 14.9958 32.8637 13.6996 33.5754Z" stroke="#B5B7BF" stroke-width="3.8125" stroke-linecap="round" stroke-linejoin="round"/>
</svg>
